<svg width="450" height="450" viewBox="0 0 450 450" fill="none" xmlns="http://www.w3.org/2000/svg">
<circle cx="225" cy="225" r="225" fill="#0088A8"/>
<path d="M333.511 224.864L338.082 210.531C338.287 209.778 337.951 209.508 337.334 209.508H312.74C312.121 209.508 311.455 209.825 311.249 210.578L306.678 224.92C306.472 225.674 306.808 226.147 307.427 226.147H331.443C332.061 226.147 333.307 225.618 333.511 224.864" fill="#3FA9F5"/>
<path d="M377.885 209.508H367.613H343.02C342.402 209.508 341.734 209.825 341.529 210.578L336.956 224.92C336.752 225.675 337.087 226.147 337.706 226.147H362.876H373.149C373.767 226.147 374.435 225.618 374.64 224.864L378.634 210.531C378.839 209.778 378.504 209.508 377.885 209.508Z" fill="#ED1C24"/>
<path d="M82.5508 245.569L92.227 215.722H77.0856L79.386 208.626H117.769L115.469 215.722H100.327L90.6509 245.569H82.5508Z" fill="white"/>
<path d="M123.58 245.569C120.933 245.569 118.8 245.344 117.182 244.892C115.563 244.441 114.386 243.718 113.65 242.725C112.912 241.732 112.584 240.432 112.664 238.825C112.743 237.219 113.164 235.241 113.924 232.894L121.792 208.626H129.893L122.113 232.623C121.739 233.779 121.545 234.727 121.536 235.467C121.524 236.207 121.69 236.812 122.033 237.281C122.374 237.751 122.931 238.076 123.701 238.257C124.471 238.437 125.457 238.527 126.657 238.527H138.781C139.981 238.527 141.025 238.437 141.914 238.257C142.801 238.076 143.568 237.751 144.215 237.281C144.861 236.812 145.422 236.198 145.898 235.44C146.372 234.681 146.797 233.724 147.172 232.569L154.934 208.626H162.928L155.061 232.894C154.3 235.241 153.438 237.219 152.476 238.825C151.514 240.432 150.343 241.732 148.962 242.725C147.581 243.718 145.934 244.441 144.024 244.892C142.112 245.344 139.815 245.569 137.134 245.569H123.58Z" fill="white"/>
<path d="M199.635 220.164C199.951 219.189 200.102 218.395 200.09 217.781C200.077 217.167 199.876 216.697 199.488 216.373C199.098 216.047 198.481 215.831 197.634 215.722C196.786 215.614 195.709 215.56 194.403 215.56H174.657L171.004 226.827H190.751C192.056 226.827 193.159 226.773 194.06 226.665C194.959 226.556 195.718 226.339 196.335 226.014C196.952 225.689 197.466 225.22 197.877 224.606C198.288 223.992 198.657 223.18 198.985 222.168L199.635 220.164ZM186.051 245.569L169.283 232.135L164.927 245.569H156.933L168.909 208.626H197.181C199.722 208.626 201.84 208.789 203.535 209.113C205.23 209.439 206.516 210.017 207.394 210.847C208.271 211.678 208.74 212.816 208.802 214.26C208.863 215.705 208.536 217.528 207.822 219.73L206.997 222.277C206.306 224.408 205.452 226.169 204.438 227.558C203.422 228.949 202.191 230.05 200.746 230.862C199.299 231.675 197.624 232.244 195.719 232.569C193.814 232.894 191.625 233.056 189.155 233.056H182.802L199.922 245.569H186.051Z" fill="white"/>
<path d="M222.85 215.343L220.094 223.848H242.647C244.058 223.848 245.105 223.613 245.786 223.143C246.468 222.674 247.008 221.826 247.406 220.597L248.162 218.268C248.524 217.149 248.446 216.382 247.928 215.966C247.41 215.551 246.304 215.343 244.61 215.343H222.85ZM218.162 229.806L215.229 238.852H237.729C239.247 238.852 240.399 238.645 241.187 238.229C241.974 237.814 242.556 237.029 242.93 235.873L243.668 233.598C244.159 232.081 244.196 231.071 243.778 230.564C243.359 230.059 242.409 229.806 240.927 229.806H218.162ZM216.98 208.626H247.422C249.469 208.626 251.169 208.771 252.523 209.06C253.876 209.35 254.895 209.827 255.578 210.495C256.262 211.163 256.643 212.031 256.721 213.095C256.799 214.161 256.586 215.47 256.083 217.023L255.1 220.056C254.397 222.222 253.523 223.775 252.477 224.714C251.432 225.654 250.292 226.285 249.057 226.61C249.645 226.755 250.163 226.981 250.611 227.287C251.058 227.594 251.382 228.037 251.584 228.615C251.784 229.193 251.841 229.941 251.755 230.862C251.668 231.783 251.402 232.93 250.957 234.302L249.904 237.552C249.423 239.034 248.816 240.279 248.083 241.29C247.349 242.301 246.43 243.123 245.325 243.755C244.22 244.387 242.897 244.847 241.357 245.136C239.815 245.425 238.022 245.569 235.976 245.569H205.004L216.98 208.626Z" fill="white"/>
<path d="M293.272 221.681C293.647 220.525 293.86 219.568 293.912 218.81C293.964 218.052 293.836 217.437 293.529 216.968C293.223 216.499 292.702 216.175 291.966 215.993C291.23 215.812 290.28 215.722 289.116 215.722H276.092C274.821 215.722 273.76 215.812 272.907 215.993C272.054 216.175 271.322 216.499 270.712 216.968C270.1 217.437 269.593 218.052 269.188 218.81C268.783 219.568 268.394 220.525 268.019 221.681L264.49 232.569C264.104 233.761 263.864 234.745 263.771 235.521C263.678 236.298 263.787 236.912 264.1 237.363C264.412 237.814 264.939 238.121 265.68 238.284C266.422 238.446 267.428 238.527 268.699 238.527H281.722C282.887 238.527 283.893 238.446 284.74 238.284C285.587 238.121 286.313 237.814 286.918 237.363C287.522 236.912 288.048 236.298 288.494 235.521C288.94 234.745 289.356 233.761 289.742 232.569L293.272 221.681ZM266.045 245.569C263.398 245.569 261.265 245.344 259.646 244.892C258.028 244.441 256.851 243.718 256.114 242.725C255.377 241.732 255.049 240.432 255.128 238.825C255.208 237.219 255.629 235.241 256.389 232.894L260.148 221.302C260.897 218.991 261.755 217.023 262.724 215.397C263.691 213.772 264.866 212.464 266.247 211.47C267.628 210.477 269.274 209.755 271.185 209.304C273.095 208.853 275.375 208.626 278.022 208.626H291.734C294.415 208.626 296.566 208.853 298.186 209.304C299.803 209.755 300.981 210.477 301.718 211.47C302.455 212.464 302.78 213.772 302.695 215.397C302.609 217.023 302.192 218.991 301.442 221.302L297.684 232.894C296.923 235.241 296.061 237.219 295.1 238.825C294.137 240.432 292.966 241.732 291.585 242.725C290.205 243.718 288.558 244.441 286.647 244.892C284.736 245.344 282.439 245.569 279.757 245.569H266.045Z" fill="white"/>
<path d="M395.562 196.16L380.432 251.362C379.811 253.651 377.75 255.984 376.348 255.984H56.7078C56.2799 255.984 55.9448 255.769 55.6836 255.327C55.2747 254.637 55.1773 253.575 55.4356 252.628L70.565 197.429C71.0857 195.515 72.8803 194.016 74.6502 194.016H394.288C394.899 194.016 395.362 194.207 395.559 194.54C395.753 194.865 395.753 195.457 395.562 196.16ZM398.232 192.188C397.396 190.777 395.995 190 394.288 190H266.467H210.91H74.6502C71.4946 190 68.3932 192.65 67.4382 196.16L52.3088 251.36C51.7177 253.528 51.9876 255.949 53.0113 257.678C53.8855 259.154 55.2326 260 56.7078 260H209.027H210.91H266.467H376.348C379.568 260 382.599 256.171 383.559 252.628L398.69 197.427C399.226 195.453 399.063 193.592 398.232 192.188Z" fill="white"/>
<path d="M372.119 229.016H306.973C306.355 229.016 305.688 229.333 305.482 230.086L300.911 244.428C300.706 245.183 301.041 245.656 301.659 245.656H367.382C368 245.656 368.668 245.127 368.873 244.373L372.867 230.039C373.072 229.286 372.737 229.016 372.119 229.016Z" fill="#FCEE21"/>
</svg>
