<svg width="803" height="234" viewBox="0 0 803 234" fill="none" xmlns="http://www.w3.org/2000/svg">
<path d="M650.872 81.0178L661.44 47.7112C661.915 45.9592 661.139 45.3325 659.711 45.3325H602.849C601.419 45.3325 599.877 46.0685 599.401 47.8205L588.833 81.1485C588.357 82.9005 589.133 83.9992 590.564 83.9992H646.091C647.52 83.9992 650.4 82.7698 650.872 81.0178" fill="white"/>
<path d="M90.5625 219.501H97.8492C104.069 219.501 104.033 209.581 97.8492 209.581H90.5625V219.501ZM97.8492 224.341H90.5625V232.581H85.7039V204.582C89.7532 204.582 93.8012 204.541 97.8492 204.541C110.437 204.541 110.475 224.341 97.8492 224.341" fill="white"/>
<path d="M90.5625 219.501H97.8492C104.069 219.501 104.033 209.581 97.8492 209.581H90.5625V219.501ZM97.8492 224.341H90.5625V232.581H85.7039V204.582C89.7532 204.582 93.8012 204.541 97.8492 204.541C110.437 204.541 110.475 224.341 97.8492 224.341V224.341Z" stroke="white" stroke-width="0.666667" stroke-miterlimit="10"/>
<path d="M138.33 204.622V220.661C138.33 228.939 133.657 233.181 127.178 233.181C120.995 233.181 115.733 229.101 115.733 220.661V204.622H120.554V220.661C120.554 225.701 123.203 228.379 127.215 228.379C131.227 228.379 133.509 225.461 133.509 220.661V204.622H138.33Z" fill="white"/>
<path d="M138.33 204.622V220.661C138.33 228.939 133.657 233.181 127.178 233.181C120.995 233.181 115.733 229.101 115.733 220.661V204.622H120.554V220.661C120.554 225.701 123.203 228.379 127.215 228.379C131.227 228.379 133.509 225.461 133.509 220.661V204.622H138.33Z" stroke="white" stroke-width="0.666667" stroke-miterlimit="10"/>
<path d="M152.865 227.661H160.299C162.286 227.661 165.121 226.94 165.121 224.3C165.121 221.781 162.286 220.461 160.299 220.461H152.865V227.661ZM152.865 215.821H160.299C163.354 215.821 164.347 214.421 164.347 212.821C164.347 211.541 163.391 209.381 160.299 209.381H152.865V215.821ZM169.169 212.701C169.169 214.861 168.213 216.941 165.819 218.101C168.838 219.101 169.942 222.58 169.942 224.341C169.942 230.58 165.635 232.58 160.299 232.58H148.081V204.581H160.299C165.378 204.581 169.169 207.062 169.169 212.701" fill="white"/>
<path d="M152.865 227.661H160.299C162.286 227.661 165.121 226.94 165.121 224.3C165.121 221.781 162.286 220.461 160.299 220.461H152.865V227.661ZM152.865 215.821H160.299C163.354 215.821 164.347 214.421 164.347 212.821C164.347 211.541 163.391 209.381 160.299 209.381H152.865V215.821ZM169.169 212.701C169.169 214.861 168.213 216.941 165.819 218.101C168.838 219.101 169.942 222.58 169.942 224.341C169.942 230.58 165.635 232.58 160.299 232.58H148.081V204.581H160.299C165.378 204.581 169.169 207.062 169.169 212.701V212.701Z" stroke="white" stroke-width="0.666667" stroke-miterlimit="10"/>
<path d="M183.371 204.582V227.7H196.621V232.58H178.513V204.582H183.371Z" fill="white"/>
<path d="M183.371 204.582V227.7H196.621V232.58H178.513V204.582H183.371Z" stroke="white" stroke-width="0.666667" stroke-miterlimit="10"/>
<path d="M205.23 204.582H210.052V232.581H205.23V204.582Z" fill="white" stroke="white" stroke-width="0.666667" stroke-miterlimit="10"/>
<path d="M242.474 229.061C239.825 231.901 236.401 233.221 232.683 233.221C223.114 233.221 219.066 226.061 219.03 218.781C218.993 211.461 223.373 204.022 232.683 204.022C236.181 204.022 239.493 205.461 242.142 208.302L238.903 211.701C237.211 209.901 234.929 209.062 232.683 209.062C226.465 209.062 223.778 214.101 223.814 218.781C223.851 223.422 226.317 228.259 232.683 228.259C234.929 228.259 237.469 227.259 239.162 225.422L242.474 229.061Z" fill="white"/>
<path d="M242.474 229.061C239.825 231.901 236.401 233.221 232.683 233.221C223.114 233.221 219.066 226.061 219.03 218.781C218.993 211.461 223.373 204.022 232.683 204.022C236.181 204.022 239.493 205.461 242.142 208.302L238.903 211.701C237.211 209.901 234.929 209.062 232.683 209.062C226.465 209.062 223.778 214.101 223.814 218.781C223.851 223.422 226.317 228.259 232.683 228.259C234.929 228.259 237.469 227.259 239.162 225.422L242.474 229.061Z" stroke="white" stroke-width="0.666667" stroke-miterlimit="10"/>
<path d="M250.421 204.582H255.242V232.581H250.421V204.582Z" fill="white" stroke="white" stroke-width="0.666667" stroke-miterlimit="10"/>
<path d="M269.446 227.5H274.746C280.598 227.5 282.917 222.861 282.806 218.302C282.695 213.941 280.339 209.581 274.746 209.581H269.446V227.5ZM287.627 218.341C287.738 225.421 283.763 232.581 274.746 232.581H264.625V204.582H274.746C283.579 204.582 287.517 211.421 287.627 218.341" fill="white"/>
<path d="M269.446 227.5H274.746C280.598 227.5 282.917 222.861 282.806 218.302C282.695 213.941 280.339 209.581 274.746 209.581H269.446V227.5ZM287.627 218.341C287.738 225.421 283.763 232.581 274.746 232.581H264.625V204.582H274.746C283.579 204.582 287.517 211.421 287.627 218.341V218.341Z" stroke="white" stroke-width="0.666667" stroke-miterlimit="10"/>
<path d="M307.535 210.461L302.751 222.379H312.319L307.535 210.461ZM314.269 227.301H300.8L298.591 232.581H293.328L304.885 204.582H310.184L321.741 232.581H316.441L314.269 227.301Z" fill="white"/>
<path d="M307.535 210.461L302.751 222.379H312.319L307.535 210.461ZM314.269 227.301H300.8L298.591 232.581H293.328L304.885 204.582H310.184L321.741 232.581H316.441L314.269 227.301Z" stroke="white" stroke-width="0.666667" stroke-miterlimit="10"/>
<path d="M334.36 227.5H339.66C345.512 227.5 347.831 222.861 347.72 218.302C347.609 213.941 345.253 209.581 339.66 209.581H334.36V227.5ZM352.541 218.341C352.652 225.421 348.677 232.581 339.66 232.581H329.539V204.582H339.66C348.493 204.582 352.431 211.421 352.541 218.341" fill="white"/>
<path d="M334.36 227.5H339.66C345.512 227.5 347.831 222.861 347.72 218.302C347.609 213.941 345.253 209.581 339.66 209.581H334.36V227.5ZM352.541 218.341C352.652 225.421 348.677 232.581 339.66 232.581H329.539V204.582H339.66C348.493 204.582 352.431 211.421 352.541 218.341V218.341Z" stroke="white" stroke-width="0.666667" stroke-miterlimit="10"/>
<path d="M384.335 216.14L391.18 204.582H397.032V204.822L386.764 221.02V232.58H381.905V221.02L372.005 204.822V204.582H377.783L384.335 216.14Z" fill="white"/>
<path d="M384.335 216.14L391.18 204.582H397.032V204.822L386.764 221.02V232.58H381.905V221.02L372.005 204.822V204.582H377.783L384.335 216.14Z" stroke="white" stroke-width="0.666667" stroke-miterlimit="10"/>
<path d="M439.351 212.302L430.96 224.46H430.003L421.796 212.262V232.619H416.938V204.622H422.532L430.594 216.662L438.654 204.622H444.211V232.619H439.351V212.302Z" fill="white"/>
<path d="M439.351 212.302L430.96 224.46H430.003L421.796 212.262V232.619H416.938V204.622H422.532L430.594 216.662L438.654 204.622H444.211V232.619H439.351V212.302Z" stroke="white" stroke-width="0.666667" stroke-miterlimit="10"/>
<path d="M465.479 210.461L460.695 222.379H470.263L465.479 210.461ZM472.213 227.301H458.744L456.536 232.581H451.273L462.829 204.582H468.128L479.684 232.581H474.385L472.213 227.301Z" fill="white"/>
<path d="M465.479 210.461L460.695 222.379H470.263L465.479 210.461ZM472.213 227.301H458.744L456.536 232.581H451.273L462.829 204.582H468.128L479.684 232.581H474.385L472.213 227.301Z" stroke="white" stroke-width="0.666667" stroke-miterlimit="10"/>
<path d="M491.9 209.502V218.461H499.296C502.388 218.461 503.712 216.221 503.712 213.981C503.712 211.742 502.352 209.502 499.296 209.502H491.9ZM509.86 232.581H504.083L496.574 223.221H491.9V232.581H487.04V204.541C491.127 204.541 495.212 204.582 499.296 204.582C505.37 204.622 508.572 209.021 508.572 213.862C508.572 217.7 506.952 221.581 502.056 222.661L509.86 232.221V232.581Z" fill="white"/>
<path d="M491.9 209.502V218.461H499.296C502.388 218.461 503.712 216.221 503.712 213.981C503.712 211.742 502.352 209.502 499.296 209.502H491.9ZM509.86 232.581H504.083L496.574 223.221H491.9V232.581H487.04V204.541C491.127 204.541 495.212 204.582 499.296 204.582C505.37 204.622 508.572 209.021 508.572 213.862C508.572 217.7 506.952 221.581 502.056 222.661L509.86 232.221V232.581Z" stroke="white" stroke-width="0.666667" stroke-miterlimit="10"/>
<path d="M537.682 204.742L526.234 218.14L538.638 232.26V232.58H532.639L521.855 220.18V232.58H516.996V204.582H521.855V216.422L531.646 204.582H537.682V204.742Z" fill="white"/>
<path d="M537.682 204.742L526.234 218.14L538.638 232.26V232.58H532.639L521.855 220.18V232.58H516.996V204.582H521.855V216.422L531.646 204.582H537.682V204.742Z" stroke="white" stroke-width="0.666667" stroke-miterlimit="10"/>
<path d="M565.464 232.58H546.179V204.582H565.464V209.702H551V216.14H564.95V221.06H551V227.38H565.464V232.58Z" fill="white"/>
<path d="M565.464 232.58H546.179V204.582H565.464V209.702H551V216.14H564.95V221.06H551V227.38H565.464V232.58Z" stroke="white" stroke-width="0.666667" stroke-miterlimit="10"/>
<path d="M582.537 209.381H574.366V204.581H595.565V209.381H587.396V232.58H582.537V209.381Z" fill="white"/>
<path d="M582.537 209.381H574.366V204.581H595.565V209.381H587.396V232.58H582.537V209.381Z" stroke="white" stroke-width="0.666667" stroke-miterlimit="10"/>
<path d="M603.697 204.582H608.517V232.581H603.697V204.582Z" fill="white" stroke="white" stroke-width="0.666667" stroke-miterlimit="10"/>
<path d="M635.161 204.541H640.021V232.58H637.002V232.62L623.458 213.701V232.58H618.599V204.581H622.538L635.161 221.941V204.541Z" fill="white"/>
<path d="M635.161 204.541H640.021V232.58H637.002V232.62L623.458 213.701V232.58H618.599V204.581H622.538L635.161 221.941V204.541Z" stroke="white" stroke-width="0.666667" stroke-miterlimit="10"/>
<path d="M668.76 211.421C667.031 209.621 664.455 208.621 662.211 208.621C656.689 208.621 653.341 213.181 653.341 218.941C653.341 223.541 655.805 228.3 662.211 228.3C664.233 228.3 666 227.82 668.025 226.06V221.101H661.437V216.381H672.479V228.18C669.939 231.34 666.736 233.221 662.211 233.221C652.531 233.221 648.592 226.3 648.592 218.941C648.592 211.061 653.12 203.781 662.211 203.781C665.669 203.781 669.129 205.221 671.779 208.061L668.76 211.421Z" fill="white"/>
<path d="M668.76 211.421C667.031 209.621 664.455 208.621 662.211 208.621C656.689 208.621 653.341 213.181 653.341 218.941C653.341 223.541 655.805 228.3 662.211 228.3C664.233 228.3 666 227.82 668.025 226.06V221.101H661.437V216.381H672.479V228.18C669.939 231.34 666.736 233.221 662.211 233.221C652.531 233.221 648.592 226.3 648.592 218.941C648.592 211.061 653.12 203.781 662.211 203.781C665.669 203.781 669.129 205.221 671.779 208.061L668.76 211.421Z" stroke="white" stroke-width="0.666667" stroke-miterlimit="10"/>
<path d="M70.6355 129.132L93.0075 59.7724H57.9995L63.3182 43.283H152.062L146.744 59.7724H111.736L89.3635 129.132H70.6355Z" fill="white"/>
<path d="M165.499 129.132C159.379 129.132 154.445 128.608 150.705 127.558C146.963 126.51 144.241 124.831 142.539 122.523C140.833 120.216 140.073 117.195 140.26 113.459C140.441 109.727 141.415 105.132 143.173 99.6764L161.364 43.283H180.093L162.107 99.0484C161.24 101.734 160.792 103.938 160.771 105.656C160.744 107.376 161.127 108.783 161.92 109.872C162.709 110.964 163.996 111.719 165.777 112.139C167.559 112.559 169.837 112.768 172.612 112.768H200.644C203.417 112.768 205.832 112.559 207.887 112.139C209.937 111.719 211.711 110.964 213.208 109.872C214.7 108.783 215.997 107.355 217.097 105.594C218.195 103.831 219.177 101.607 220.044 98.9217L237.991 43.283H256.473L238.283 99.6764C236.524 105.132 234.531 109.727 232.308 113.459C230.083 117.195 227.375 120.216 224.183 122.523C220.991 124.831 217.183 126.51 212.765 127.558C208.345 128.608 203.035 129.132 196.835 129.132H165.499Z" fill="white"/>
<path d="M341.341 70.0947C342.072 67.8307 342.422 65.984 342.393 64.5573C342.364 63.1307 341.898 62.0387 341.001 61.2853C340.101 60.528 338.673 60.0253 336.714 59.7733C334.754 59.5213 332.265 59.396 329.246 59.396H283.59L275.145 85.5787H320.801C323.82 85.5787 326.369 85.4533 328.452 85.2013C330.532 84.9493 332.285 84.4453 333.712 83.6893C335.138 82.9347 336.328 81.8453 337.277 80.4173C338.228 78.992 339.08 77.104 339.838 74.7533L341.341 70.0947ZM309.934 129.132L271.166 97.9133L261.096 129.132H242.612L270.302 43.284H335.668C341.544 43.284 346.441 43.6613 350.358 44.416C354.277 45.172 357.25 46.5147 359.281 48.4453C361.309 50.376 362.394 53.02 362.536 56.3747C362.677 59.7333 361.922 63.9707 360.272 69.088L358.362 75.0053C356.765 79.9573 354.792 84.0493 352.446 87.2787C350.097 90.5107 347.252 93.068 343.91 94.956C340.565 96.844 336.693 98.1667 332.288 98.9213C327.882 99.6773 322.822 100.055 317.112 100.055H302.422L342.005 129.132H309.934Z" fill="white"/>
<path d="M395.018 58.8928L388.644 78.6555H440.788C444.051 78.6555 446.472 78.1101 448.047 77.0181C449.623 75.9288 450.872 73.9568 451.792 71.1021L453.539 65.6901C454.378 63.0888 454.198 61.3061 452.999 60.3395C451.8 59.3755 449.244 58.8928 445.327 58.8928H395.018ZM384.178 92.5008L377.396 113.523H429.419C432.927 113.523 435.592 113.041 437.414 112.075C439.234 111.111 440.578 109.286 441.444 106.599L443.15 101.313C444.286 97.7888 444.371 95.4408 443.403 94.2635C442.435 93.0888 440.239 92.5008 436.812 92.5008H384.178ZM381.446 43.2835H451.83C456.562 43.2835 460.492 43.6195 463.623 44.2915C466.751 44.9648 469.107 46.0741 470.687 47.6275C472.268 49.1795 473.148 51.1955 473.328 53.6675C473.508 56.1448 473.018 59.1875 471.854 62.7955L469.58 69.8435C467.955 74.8781 465.935 78.4875 463.518 80.6688C461.1 82.8528 458.464 84.3195 455.61 85.0755C456.97 85.4115 458.166 85.9368 459.203 86.6475C460.236 87.3621 460.986 88.3901 461.451 89.7328C461.915 91.0768 462.047 92.8155 461.847 94.9555C461.647 97.0955 461.031 99.7608 460.002 102.95L457.567 110.502C456.456 113.945 455.052 116.839 453.358 119.187C451.66 121.538 449.536 123.447 446.982 124.915C444.427 126.385 441.367 127.454 437.806 128.125C434.242 128.798 430.096 129.133 425.364 129.133H353.755L381.446 43.2835Z" fill="white"/>
<path d="M557.838 73.6207C558.703 70.9353 559.197 68.71 559.317 66.9487C559.437 65.1873 559.142 63.7593 558.433 62.6687C557.723 61.5793 556.519 60.8247 554.818 60.4033C553.117 59.9833 550.921 59.7727 548.227 59.7727H518.115C515.178 59.7727 512.723 59.9833 510.753 60.4033C508.781 60.8247 507.087 61.5793 505.677 62.6687C504.262 63.7593 503.09 65.1873 502.154 66.9487C501.218 68.71 500.317 70.9353 499.451 73.6207L491.291 98.922C490.398 101.691 489.843 103.979 489.629 105.782C489.414 107.587 489.666 109.014 490.39 110.062C491.11 111.111 492.33 111.823 494.043 112.202C495.758 112.579 498.085 112.767 501.022 112.767H531.134C533.826 112.767 536.151 112.579 538.111 112.202C540.069 111.823 541.747 111.111 543.146 110.062C544.543 109.014 545.759 107.587 546.791 105.782C547.821 103.979 548.783 101.691 549.677 98.922L557.838 73.6207ZM494.887 129.133C488.767 129.133 483.834 128.609 480.093 127.558C476.351 126.51 473.63 124.831 471.926 122.523C470.222 120.215 469.462 117.195 469.646 113.459C469.83 109.727 470.803 105.133 472.562 99.6767L481.251 72.7393C482.983 67.37 484.969 62.7953 487.207 59.018C489.445 55.242 492.161 52.202 495.354 49.8927C498.546 47.5847 502.351 45.9073 506.77 44.858C511.187 43.81 516.458 43.2833 522.578 43.2833H554.281C560.481 43.2833 565.454 43.81 569.198 44.858C572.937 45.9073 575.662 47.5847 577.366 49.8927C579.069 52.202 579.821 55.242 579.625 59.018C579.425 62.7953 578.461 67.37 576.727 72.7393L568.038 99.6767C566.279 105.133 564.286 109.727 562.063 113.459C559.838 117.195 557.13 120.215 553.938 122.523C550.746 124.831 546.938 126.51 542.521 127.558C538.101 128.609 532.791 129.133 526.59 129.133H494.887Z" fill="white"/>
<path d="M794.338 14.3147L759.357 142.593C757.922 147.913 753.157 153.333 749.915 153.333H10.8847C9.89538 153.333 9.12071 152.835 8.51671 151.808C7.57138 150.204 7.34606 147.737 7.94339 145.536L42.9234 17.2627C44.1274 12.816 48.2768 9.33333 52.3688 9.33333H791.394C792.806 9.33333 793.877 9.776 794.333 10.5493C794.779 11.3053 794.781 12.6813 794.338 14.3147ZM800.511 5.08534C798.578 1.80534 795.339 -4.76837e-07 791.394 -4.76837e-07H495.863H367.411H52.3688C45.0728 -4.76837e-07 37.9021 6.15733 35.6941 14.3147L0.714061 142.589C-0.652605 147.628 -0.0285818 153.253 2.33808 157.271C4.35942 160.7 7.47405 162.667 10.8847 162.667H363.057H367.411H495.863H749.915C757.359 162.667 764.367 153.768 766.587 145.536L801.57 17.26C802.81 12.672 802.434 8.348 800.511 5.08534Z" fill="white"/>
<path d="M740.136 90.6663H589.516C588.085 90.6663 586.544 91.4023 586.068 93.1529L575.499 126.481C575.024 128.234 575.8 129.333 577.229 129.333H729.184C730.613 129.333 732.159 128.104 732.632 126.352L741.867 93.0436C742.34 91.2929 741.565 90.6663 740.136 90.6663Z" fill="white"/>
</svg>
